<?xml version="1.0" standalone="no"?>
<!DOCTYPE svg PUBLIC "-//W3C//DTD SVG 20010904//EN"
 "http://www.w3.org/TR/2001/REC-SVG-20010904/DTD/svg10.dtd">
<svg version="1.0" xmlns="http://www.w3.org/2000/svg"
 width="1000.000000pt" height="1000.000000pt" viewBox="0 0 1000.000000 1000.000000"
 preserveAspectRatio="xMidYMid meet">
<metadata>
Created by potrace 1.16, written by Peter Selinger 2001-2019
</metadata>
<g transform="translate(0.000000,1000.000000) scale(0.100000,-0.100000)"
fill="#000000" stroke="none">
<path d="M4750 9159 c-1176 -70 -2268 -636 -3001 -1555 -518 -649 -815 -1384
-900 -2229 -16 -155 -16 -595 0 -750 100 -993 511 -1872 1196 -2561 915 -919
2188 -1358 3477 -1198 1121 138 2150 743 2828 1659 449 607 713 1288 796 2057
20 185 23 616 5 793 -100 994 -511 1872 -1196 2561 -849 853 -2007 1295 -3205
1223z m-1277 -1923 c71 -8 168 -44 244 -91 38 -24 266 -244 671 -648 l612
-612 613 612 c404 404 632 624 670 648 221 139 505 128 712 -27 259 -195 324
-559 150 -835 -24 -38 -244 -266 -648 -670 l-612 -613 612 -612 c404 -405 624
-633 648 -671 174 -276 109 -640 -150 -835 -207 -155 -491 -166 -712 -27 -38
24 -266 244 -670 648 l-613 612 -612 -612 c-405 -404 -633 -624 -671 -648
-276 -174 -640 -109 -835 150 -155 207 -166 491 -27 712 24 38 244 266 648
671 l612 612 -612 613 c-404 404 -624 632 -648 670 -210 333 -65 777 298 917
72 28 195 51 242 44 11 -1 46 -5 78 -8z"/>
</g>
</svg>
